<?xml version="1.0" encoding="UTF-8" standalone="no"?>
<!DOCTYPE svg PUBLIC "-//W3C//DTD SVG 1.1//EN" "http://www.w3.org/Graphics/SVG/1.1/DTD/svg11.dtd">
<svg width="100%" height="100%" viewBox="0 0 80 113" version="1.1" xmlns="http://www.w3.org/2000/svg" xmlns:xlink="http://www.w3.org/1999/xlink" xml:space="preserve" xmlns:serif="http://www.serif.com/" style="fill-rule:evenodd;clip-rule:evenodd;stroke-linejoin:round;stroke-miterlimit:2;">
    <g transform="matrix(1,0,0,1,-985.127,-315.604)">
        <g transform="matrix(1,0,0,1,169.981,-41.6646)">
            <path d="M854.903,357.269C876.845,357.269 894.66,375.084 894.66,397.026C894.66,418.969 876.845,436.783 854.903,436.783C832.96,436.783 815.145,418.969 815.145,397.026C815.145,375.084 832.96,357.269 854.903,357.269ZM874.183,420.417C875.456,421.757 874.342,424.885 871.697,427.398C869.052,429.912 865.871,430.865 864.598,429.526C863.326,428.186 864.439,425.058 867.084,422.545C869.729,420.031 872.91,419.078 874.183,420.417ZM865.292,412.297C866.594,414.233 864.615,417.846 860.876,420.361C857.137,422.875 853.045,423.345 851.743,421.409C850.441,419.474 852.419,415.86 856.158,413.346C859.897,410.831 863.989,410.361 865.292,412.297ZM884.002,403.769C885.735,404.41 886.113,407.709 884.846,411.131C883.58,414.553 881.145,416.81 879.412,416.168C877.679,415.527 877.3,412.228 878.567,408.806C879.834,405.385 882.269,403.127 884.002,403.769ZM874.63,390.775C876.882,391.664 877.375,395.767 875.731,399.933C874.087,404.099 870.925,406.759 868.673,405.871C866.422,404.983 865.928,400.879 867.572,396.713C869.216,392.548 872.379,389.887 874.63,390.775ZM885.573,384.331C887.421,384.326 888.928,387.285 888.938,390.933C888.948,394.582 887.455,397.548 885.607,397.553C883.76,397.558 882.252,394.6 882.242,390.951C882.233,387.302 883.725,384.336 885.573,384.331Z" style="fill:rgb(89,163,113);"/>
            <g transform="matrix(1,0,0,1,55.2313,-2.89688)">
                <path d="M792.238,472.372L807.845,472.339C807.845,472.339 807.031,464.249 808.652,455.165C809.873,448.317 816.511,440.754 814.18,441.376C811.463,442.101 808.679,443.015 804.245,443.387C801.455,443.621 798.719,443.594 796.359,443.41C790.445,442.948 789.173,442.425 785.179,441.583C782.839,441.091 788.532,447.933 790.709,455.37C793.189,463.841 792.238,472.372 792.238,472.372Z" style="fill:rgb(89,163,113);"/>
            </g>
        </g>
    </g>
</svg>
